# xmcd
#
# Track frame offsets:
# 150
# 15354
# 26408
# 39696
# 54473
# 71671
# 85930
# 100434
# 114710
# 129050
# 142814
# 157155
# 172993
# 185582
# 197640
# 211364
# 227437
# 238825
# 252100
# 266462
# 282805
# 293774
# 307183
# 319498
# 333845
# 344645
#
# Disc length: 4772 seconds
#
#
# Revision: 0
# Processed by: cddbd v1.4PL0 Copyright (c) Steve Scherf et al.
# Submitted via: FreeRIP 2.30 
#
DISCID=7b12a21a
DTITLE=Branded - Branded
DYEAR=1982
DGENRE=Way CW
TTITLE0=GOD'S HIGH COUNTRY
TTITLE1=LORD, YOU MUST BE LOVE
TTITLE2=CAPTIAN OF SALVATION
TTITLE3=ONE MIND
TTITLE4=ALL THAT I AM
TTITLE5=BORN AGAIN TO WIN
TTITLE6=COUNTRY IN MY VEINS
TTITLE7=I'LL NEVER DOUBT YOU
TTITLE8=EAGLE INSIDE
TTITLE9=LAAST NIGHT IN GALILEE
TTITLE10=DADDY'S ARMS
TTITLE11=MAYBE TODAY
TTITLE12=WALKING IN THE STEPS OF JESUS CHRIST
TTITLE13=WHAT YOU DOI WITH TODAY
TTITLE14=RIGHT ALL ALONG
TTITLE15=PICTURE OF MYSELF
TTITLE16=I LOVE YOU MORE TODAY
TTITLE17=YOU'LL NEVER HAVE TO FEEL HELPLESS
TTITLE18=GOD'S WORD IS EVERYTHING TO ME
TTITLE19=SOMEWHERE ALONG THE LINE
TTITLE20=GIVE HIM YOUR HEART
TTITLE21=TWIG IN HIS HOME
TTITLE22=EVERYTIME
TTITLE23=YOU'RE THE ONLY ONE
TTITLE24=I AM READY
TTITLE25=OUR COMMITMENT
EXTD=A Twig is a local fellowship of like minded believers in Christ
EXTT0=Branded  1982  WPBC 122
EXTT1=Branded  1982  WPBC 122
EXTT2=Branded  1982  WPBC 122
EXTT3=Branded  1982  WPBC 122
EXTT4=Branded  1982  WPBC 122
EXTT5=Branded  1982  WPBC 122
EXTT6=Branded  1982  WPBC 122
EXTT7=Branded  1982  WPBC 122
EXTT8=Branded  1982  WPBC 122
EXTT9=Branded  1982  WPBC 122
EXTT10=Branded  1982  WPBC 122
EXTT11=Branded  1982  WPBC 122
EXTT12=Branded . . . A Lifetime  1986  WPBR 138
EXTT13=Branded . . . A Lifetime  1986  WPBR 138
EXTT14=Branded . . . A Lifetime  1986  WPBR 138
EXTT15=Branded . . . A Lifetime  1986  WPBR 138
EXTT16=Branded . . . A Lifetime  1986  WPBR 138
EXTT17=Branded . . . A Lifetime  1986  WPBR 138
EXTT18=Branded . . . A Lifetime  1986  WPBR 138
EXTT19=Branded . . . A Lifetime  1986  WPBR 138
EXTT20=Branded . . . A Lifetime  1986  WPBR 138
EXTT21=Branded . . . A Lifetime  1986  WPBR 138
EXTT22=Branded . . . A Lifetime  1986  WPBR 138
EXTT23=Branded . . . A Lifetime  1986  WPBR 138
EXTT24=Branded . . . A Lifetime  1986  WPBR 138
EXTT25=Branded . . . A Lifetime  1986  WPBR 138
PLAYORDER=
